<mxfile host="app.diagrams.net" agent="Mozilla/5.0 (Windows NT 10.0; Win64; x64) AppleWebKit/537.36 (KHTML, like Gecko) Chrome/135.0.0.0 Safari/537.36" version="26.2.14" pages="5">
  <diagram name="Página-1" id="11A5nqiwPzVX3vTqSPiO">
    <mxGraphModel dx="1048" dy="733" grid="1" gridSize="10" guides="1" tooltips="1" connect="1" arrows="1" fold="1" page="1" pageScale="1" pageWidth="1169" pageHeight="827" math="0" shadow="0">
      <root>
        <mxCell id="0" />
        <mxCell id="1" parent="0" />
        <mxCell id="QVi0pq9fGgTf7buqDcmL-5" style="edgeStyle=orthogonalEdgeStyle;rounded=0;orthogonalLoop=1;jettySize=auto;html=1;exitX=0.5;exitY=1;exitDx=0;exitDy=0;entryX=0.5;entryY=0;entryDx=0;entryDy=0;" edge="1" parent="1" source="QVi0pq9fGgTf7buqDcmL-1" target="QVi0pq9fGgTf7buqDcmL-2">
          <mxGeometry relative="1" as="geometry" />
        </mxCell>
        <mxCell id="QVi0pq9fGgTf7buqDcmL-1" value="Bienvenida al programa" style="rounded=1;whiteSpace=wrap;html=1;" vertex="1" parent="1">
          <mxGeometry x="270" y="120" width="160" height="80" as="geometry" />
        </mxCell>
        <mxCell id="QVi0pq9fGgTf7buqDcmL-6" style="edgeStyle=orthogonalEdgeStyle;rounded=0;orthogonalLoop=1;jettySize=auto;html=1;exitX=0.5;exitY=1;exitDx=0;exitDy=0;entryX=0.5;entryY=0;entryDx=0;entryDy=0;" edge="1" parent="1" source="QVi0pq9fGgTf7buqDcmL-2" target="QVi0pq9fGgTf7buqDcmL-4">
          <mxGeometry relative="1" as="geometry" />
        </mxCell>
        <UserObject label="Se muestra el menu de opciones&lt;div&gt;&lt;br&gt;&lt;/div&gt;&lt;div&gt;1.Suma de matrices&lt;/div&gt;" link="data:page/id,s57G_cIKlfA5ONeUiyxK" id="QVi0pq9fGgTf7buqDcmL-2">
          <mxCell style="rounded=1;whiteSpace=wrap;html=1;" vertex="1" parent="1">
            <mxGeometry x="270" y="230" width="160" height="80" as="geometry" />
          </mxCell>
        </UserObject>
        <mxCell id="QVi0pq9fGgTf7buqDcmL-4" value="Salida del programa" style="rounded=1;whiteSpace=wrap;html=1;" vertex="1" parent="1">
          <mxGeometry x="270" y="340" width="160" height="90" as="geometry" />
        </mxCell>
      </root>
    </mxGraphModel>
  </diagram>
  <diagram id="s57G_cIKlfA5ONeUiyxK" name="Página-2">
    <mxGraphModel dx="1048" dy="733" grid="1" gridSize="10" guides="1" tooltips="1" connect="1" arrows="1" fold="1" page="1" pageScale="1" pageWidth="1169" pageHeight="827" math="0" shadow="0">
      <root>
        <mxCell id="0" />
        <mxCell id="1" parent="0" />
        <mxCell id="941XMlzq5lazk8NExG0s-1" value="CSV con los datos de las matrices&lt;br&gt;&lt;br&gt;1 2 3; 3 4 6; 7 8 9" style="rounded=1;whiteSpace=wrap;html=1;" vertex="1" parent="1">
          <mxGeometry x="50" y="40" width="110" height="170" as="geometry" />
        </mxCell>
        <mxCell id="941XMlzq5lazk8NExG0s-2" value="Método&amp;nbsp;&lt;div&gt;&lt;br&gt;&lt;/div&gt;&lt;div&gt;getMatrices()&lt;/div&gt;" style="rounded=1;whiteSpace=wrap;html=1;" vertex="1" parent="1">
          <mxGeometry x="240" y="40" width="120" height="170" as="geometry" />
        </mxCell>
        <UserObject label="Metodo Suma de matrices" link="data:page/id,KS72SE62fUSCfbMW8kUk" id="941XMlzq5lazk8NExG0s-3">
          <mxCell style="rounded=1;whiteSpace=wrap;html=1;" vertex="1" parent="1">
            <mxGeometry x="440" y="40" width="120" height="170" as="geometry" />
          </mxCell>
        </UserObject>
        <UserObject label="Resultado visto en HTML" link="data:page/id,lOZaLqpUZwgAkoKraM_7" id="941XMlzq5lazk8NExG0s-4">
          <mxCell style="rounded=1;whiteSpace=wrap;html=1;" vertex="1" parent="1">
            <mxGeometry x="640" y="40" width="120" height="170" as="geometry" />
          </mxCell>
        </UserObject>
        <UserObject label="" link="data:page/id,P4eOnCYkSCbHjUy8SgPM" id="941XMlzq5lazk8NExG0s-5">
          <mxCell style="shape=flexArrow;endArrow=classic;html=1;rounded=0;exitX=1;exitY=0.5;exitDx=0;exitDy=0;entryX=0;entryY=0.5;entryDx=0;entryDy=0;" edge="1" parent="1" source="941XMlzq5lazk8NExG0s-1" target="941XMlzq5lazk8NExG0s-2">
            <mxGeometry width="50" height="50" relative="1" as="geometry">
              <mxPoint x="400" y="310" as="sourcePoint" />
              <mxPoint x="450" y="260" as="targetPoint" />
            </mxGeometry>
          </mxCell>
        </UserObject>
        <mxCell id="941XMlzq5lazk8NExG0s-6" value="" style="shape=flexArrow;endArrow=classic;html=1;rounded=0;exitX=1;exitY=0.5;exitDx=0;exitDy=0;entryX=0;entryY=0.5;entryDx=0;entryDy=0;" edge="1" parent="1">
          <mxGeometry width="50" height="50" relative="1" as="geometry">
            <mxPoint x="360" y="124.5" as="sourcePoint" />
            <mxPoint x="440" y="124.5" as="targetPoint" />
          </mxGeometry>
        </mxCell>
        <mxCell id="MWfD9M81ampzq12BsaUC-2" value="envia los datos&amp;nbsp;" style="edgeLabel;html=1;align=center;verticalAlign=middle;resizable=0;points=[];" vertex="1" connectable="0" parent="941XMlzq5lazk8NExG0s-6">
          <mxGeometry x="-0.4833" y="-4" relative="1" as="geometry">
            <mxPoint x="19" y="-3" as="offset" />
          </mxGeometry>
        </mxCell>
        <mxCell id="941XMlzq5lazk8NExG0s-7" value="" style="shape=flexArrow;endArrow=classic;html=1;rounded=0;exitX=1;exitY=0.5;exitDx=0;exitDy=0;entryX=0;entryY=0.5;entryDx=0;entryDy=0;" edge="1" parent="1">
          <mxGeometry width="50" height="50" relative="1" as="geometry">
            <mxPoint x="560" y="120" as="sourcePoint" />
            <mxPoint x="640" y="120" as="targetPoint" />
          </mxGeometry>
        </mxCell>
      </root>
    </mxGraphModel>
  </diagram>
  <diagram id="P4eOnCYkSCbHjUy8SgPM" name="Página-3">
    <mxGraphModel dx="786" dy="550" grid="1" gridSize="10" guides="1" tooltips="1" connect="1" arrows="1" fold="1" page="1" pageScale="1" pageWidth="1169" pageHeight="827" math="0" shadow="0">
      <root>
        <mxCell id="0" />
        <mxCell id="1" parent="0" />
        <mxCell id="7vWZysRvxnhgJ8Oly4W--1" style="edgeStyle=orthogonalEdgeStyle;rounded=0;orthogonalLoop=1;jettySize=auto;html=1;exitX=0.5;exitY=1;exitDx=0;exitDy=0;entryX=0.5;entryY=0;entryDx=0;entryDy=0;" edge="1" parent="1" source="Ic81NkFzPyNLY8HEHij9-1" target="Ic81NkFzPyNLY8HEHij9-2">
          <mxGeometry relative="1" as="geometry" />
        </mxCell>
        <mxCell id="Ic81NkFzPyNLY8HEHij9-1" value="Archivo CSV con los datos de matrices&amp;nbsp;" style="rounded=1;whiteSpace=wrap;html=1;" vertex="1" parent="1">
          <mxGeometry x="280" y="40" width="160" height="80" as="geometry" />
        </mxCell>
        <mxCell id="7vWZysRvxnhgJ8Oly4W--2" style="edgeStyle=orthogonalEdgeStyle;rounded=0;orthogonalLoop=1;jettySize=auto;html=1;exitX=0.5;exitY=1;exitDx=0;exitDy=0;entryX=0.5;entryY=0;entryDx=0;entryDy=0;" edge="1" parent="1" source="Ic81NkFzPyNLY8HEHij9-2" target="Ic81NkFzPyNLY8HEHij9-3">
          <mxGeometry relative="1" as="geometry" />
        </mxCell>
        <mxCell id="Ic81NkFzPyNLY8HEHij9-2" value="Transform con el método split de cada cadena. Este me devolverá un array" style="rounded=1;whiteSpace=wrap;html=1;" vertex="1" parent="1">
          <mxGeometry x="280" y="200" width="160" height="80" as="geometry" />
        </mxCell>
        <mxCell id="Ic81NkFzPyNLY8HEHij9-3" value="getMatrices" style="rounded=1;whiteSpace=wrap;html=1;" vertex="1" parent="1">
          <mxGeometry x="280" y="360" width="160" height="80" as="geometry" />
        </mxCell>
      </root>
    </mxGraphModel>
  </diagram>
  <diagram id="KS72SE62fUSCfbMW8kUk" name="Página-4">
    <mxGraphModel grid="1" page="1" gridSize="10" guides="1" tooltips="1" connect="1" arrows="1" fold="1" pageScale="1" pageWidth="1169" pageHeight="827" math="0" shadow="0">
      <root>
        <mxCell id="0" />
        <mxCell id="1" parent="0" />
      </root>
    </mxGraphModel>
  </diagram>
  <diagram id="lOZaLqpUZwgAkoKraM_7" name="Página-5">
    <mxGraphModel grid="1" page="1" gridSize="10" guides="1" tooltips="1" connect="1" arrows="1" fold="1" pageScale="1" pageWidth="1169" pageHeight="827" math="0" shadow="0">
      <root>
        <mxCell id="0" />
        <mxCell id="1" parent="0" />
      </root>
    </mxGraphModel>
  </diagram>
</mxfile>
